<mxfile host="app.diagrams.net" modified="2024-05-03T11:23:14.511Z" agent="Mozilla/5.0 (Windows NT 10.0; Win64; x64) AppleWebKit/537.36 (KHTML, like Gecko) Chrome/124.0.0.0 Safari/537.36" etag="7uI29nTOGvrO_owlPJx4" version="24.0.7" type="github">
  <diagram name="Page-1" id="74b105a0-9070-1c63-61bc-23e55f88626e">
    <mxGraphModel dx="1050" dy="577" grid="1" gridSize="10" guides="1" tooltips="1" connect="1" arrows="1" fold="1" page="1" pageScale="1.5" pageWidth="1169" pageHeight="826" background="none" math="0" shadow="0">
      <root>
        <mxCell id="0" style=";html=1;" />
        <mxCell id="1" style=";html=1;" parent="0" />
        <mxCell id="10b056a9c633e61c-30" value="Title" style="text;strokeColor=none;fillColor=none;html=1;fontSize=24;fontStyle=1;verticalAlign=middle;align=center;" parent="1" vertex="1">
          <mxGeometry x="80" y="40" width="1590" height="40" as="geometry" />
        </mxCell>
        <mxCell id="-eTZZblMJ3lCmIqNIsWR-1" value="Datasets Used&lt;div&gt;&lt;br&gt;Nasa Promise Repository&lt;div&gt;Nasa MDP Repository&amp;nbsp;&lt;/div&gt;&lt;/div&gt;" style="shape=cylinder3;whiteSpace=wrap;html=1;boundedLbl=1;backgroundOutline=1;size=15;fillColor=#f8cecc;strokeColor=#b85450;fontStyle=1" vertex="1" parent="1">
          <mxGeometry x="150" y="410" width="170" height="200" as="geometry" />
        </mxCell>
        <mxCell id="-eTZZblMJ3lCmIqNIsWR-2" value="Instances&lt;div&gt;(Clean)&lt;/div&gt;" style="shape=parallelogram;perimeter=parallelogramPerimeter;whiteSpace=wrap;html=1;fixedSize=1;fillColor=#60a917;strokeColor=#2D7600;fontColor=#ffffff;" vertex="1" parent="1">
          <mxGeometry x="370" y="440" width="120" height="60" as="geometry" />
        </mxCell>
        <mxCell id="-eTZZblMJ3lCmIqNIsWR-3" value="Instances&lt;div&gt;(Defective)&lt;/div&gt;" style="shape=parallelogram;perimeter=parallelogramPerimeter;whiteSpace=wrap;html=1;fixedSize=1;fillColor=#e51400;fontColor=#ffffff;strokeColor=#B20000;" vertex="1" parent="1">
          <mxGeometry x="370" y="520" width="120" height="60" as="geometry" />
        </mxCell>
        <mxCell id="-eTZZblMJ3lCmIqNIsWR-4" value="" style="shape=flexArrow;endArrow=classic;html=1;rounded=0;" edge="1" parent="1">
          <mxGeometry width="50" height="50" relative="1" as="geometry">
            <mxPoint x="327" y="509.47" as="sourcePoint" />
            <mxPoint x="367" y="509.56000000000006" as="targetPoint" />
          </mxGeometry>
        </mxCell>
        <mxCell id="-eTZZblMJ3lCmIqNIsWR-6" value="Feature&lt;div&gt;Extraction&lt;/div&gt;" style="rhombus;whiteSpace=wrap;html=1;fillColor=#ffe6cc;strokeColor=#d79b00;" vertex="1" parent="1">
          <mxGeometry x="532" y="460" width="100" height="100" as="geometry" />
        </mxCell>
        <mxCell id="-eTZZblMJ3lCmIqNIsWR-7" value="" style="shape=flexArrow;endArrow=classic;html=1;rounded=0;" edge="1" parent="1">
          <mxGeometry width="50" height="50" relative="1" as="geometry">
            <mxPoint x="482" y="509.47" as="sourcePoint" />
            <mxPoint x="522" y="509.56000000000006" as="targetPoint" />
          </mxGeometry>
        </mxCell>
        <mxCell id="-eTZZblMJ3lCmIqNIsWR-9" value="" style="shape=flexArrow;endArrow=classic;html=1;rounded=0;" edge="1" parent="1">
          <mxGeometry width="50" height="50" relative="1" as="geometry">
            <mxPoint x="640" y="509.09000000000003" as="sourcePoint" />
            <mxPoint x="680" y="509.18000000000006" as="targetPoint" />
          </mxGeometry>
        </mxCell>
        <mxCell id="-eTZZblMJ3lCmIqNIsWR-10" value="Training&lt;div&gt;Instances&lt;/div&gt;" style="rounded=0;whiteSpace=wrap;html=1;fillColor=#e1d5e7;strokeColor=#9673a6;" vertex="1" parent="1">
          <mxGeometry x="690" y="440" width="90" height="140" as="geometry" />
        </mxCell>
        <mxCell id="-eTZZblMJ3lCmIqNIsWR-12" value="" style="shape=flexArrow;endArrow=classic;html=1;rounded=0;" edge="1" parent="1">
          <mxGeometry width="50" height="50" relative="1" as="geometry">
            <mxPoint x="734.5699999999999" y="590" as="sourcePoint" />
            <mxPoint x="734.5699999999999" y="630" as="targetPoint" />
          </mxGeometry>
        </mxCell>
        <mxCell id="-eTZZblMJ3lCmIqNIsWR-15" value="Algorithms" style="swimlane;whiteSpace=wrap;html=1;fontStyle=1" vertex="1" parent="1">
          <mxGeometry x="586" y="640" width="298" height="280" as="geometry">
            <mxRectangle x="635" y="640" width="140" height="30" as="alternateBounds" />
          </mxGeometry>
        </mxCell>
        <mxCell id="-eTZZblMJ3lCmIqNIsWR-28" value="Machine Learning" style="swimlane;whiteSpace=wrap;html=1;" vertex="1" parent="-eTZZblMJ3lCmIqNIsWR-15">
          <mxGeometry x="58" y="30" width="160" height="140" as="geometry" />
        </mxCell>
        <mxCell id="-eTZZblMJ3lCmIqNIsWR-29" value="&lt;div style=&quot;text-align: justify;&quot;&gt;&lt;span style=&quot;background-color: initial;&quot;&gt;1. NB&lt;/span&gt;&lt;/div&gt;&lt;div style=&quot;text-align: justify;&quot;&gt;2. Decision Tree&lt;/div&gt;&lt;div style=&quot;text-align: justify;&quot;&gt;3. RF&lt;/div&gt;&lt;div style=&quot;text-align: justify;&quot;&gt;4. SVM&lt;br&gt;&lt;/div&gt;&lt;div style=&quot;text-align: justify;&quot;&gt;5. K*&lt;/div&gt;&lt;div style=&quot;text-align: justify;&quot;&gt;6.SMO&lt;/div&gt;" style="text;html=1;align=right;verticalAlign=middle;resizable=0;points=[];autosize=1;strokeColor=none;fillColor=none;" vertex="1" parent="-eTZZblMJ3lCmIqNIsWR-28">
          <mxGeometry y="30" width="110" height="100" as="geometry" />
        </mxCell>
        <mxCell id="-eTZZblMJ3lCmIqNIsWR-19" value="Transformers" style="swimlane;whiteSpace=wrap;html=1;" vertex="1" parent="-eTZZblMJ3lCmIqNIsWR-15">
          <mxGeometry x="18" y="180" width="130" height="90" as="geometry" />
        </mxCell>
        <mxCell id="-eTZZblMJ3lCmIqNIsWR-23" value="&lt;div style=&quot;text-align: justify;&quot;&gt;&lt;span style=&quot;background-color: initial;&quot;&gt;1. Tabnet&lt;/span&gt;&lt;/div&gt;&lt;div style=&quot;text-align: justify;&quot;&gt;2. TabPFN&lt;/div&gt;&lt;div style=&quot;text-align: justify;&quot;&gt;3. FT Transformer&lt;/div&gt;" style="text;html=1;align=right;verticalAlign=middle;resizable=0;points=[];autosize=1;strokeColor=none;fillColor=none;" vertex="1" parent="-eTZZblMJ3lCmIqNIsWR-19">
          <mxGeometry x="-13" y="30" width="120" height="60" as="geometry" />
        </mxCell>
        <mxCell id="-eTZZblMJ3lCmIqNIsWR-26" value="Deep Learning" style="swimlane;whiteSpace=wrap;html=1;" vertex="1" parent="-eTZZblMJ3lCmIqNIsWR-15">
          <mxGeometry x="158" y="175" width="130" height="95" as="geometry" />
        </mxCell>
        <mxCell id="-eTZZblMJ3lCmIqNIsWR-27" value="&lt;div style=&quot;text-align: justify;&quot;&gt;&lt;span style=&quot;background-color: initial;&quot;&gt;1. LSTM&lt;/span&gt;&lt;/div&gt;&lt;div style=&quot;text-align: justify;&quot;&gt;2. DBN&lt;/div&gt;&lt;div style=&quot;text-align: justify;&quot;&gt;3. DNN&lt;/div&gt;&lt;div style=&quot;text-align: justify;&quot;&gt;4. DNN and LSTM&lt;/div&gt;" style="text;html=1;align=right;verticalAlign=middle;resizable=0;points=[];autosize=1;strokeColor=none;fillColor=none;" vertex="1" parent="-eTZZblMJ3lCmIqNIsWR-26">
          <mxGeometry x="-10" y="25" width="120" height="70" as="geometry" />
        </mxCell>
        <mxCell id="-eTZZblMJ3lCmIqNIsWR-30" value="" style="shape=flexArrow;endArrow=classic;html=1;rounded=0;" edge="1" parent="1">
          <mxGeometry width="50" height="50" relative="1" as="geometry">
            <mxPoint x="578" y="779.33" as="sourcePoint" />
            <mxPoint x="540" y="779.33" as="targetPoint" />
          </mxGeometry>
        </mxCell>
        <mxCell id="-eTZZblMJ3lCmIqNIsWR-31" value="Running Tests:&lt;div&gt;1. Wilcoxon Signed Rank&lt;/div&gt;&lt;div style=&quot;text-align: justify;&quot;&gt;2. Scott Knott ESD&lt;br&gt;&lt;/div&gt;" style="rhombus;whiteSpace=wrap;html=1;fillColor=#fff2cc;strokeColor=#d6b656;" vertex="1" parent="1">
          <mxGeometry x="352" y="685" width="180" height="190" as="geometry" />
        </mxCell>
        <mxCell id="-eTZZblMJ3lCmIqNIsWR-32" value="" style="shape=flexArrow;endArrow=classic;html=1;rounded=0;" edge="1" parent="1">
          <mxGeometry width="50" height="50" relative="1" as="geometry">
            <mxPoint x="348" y="779.5" as="sourcePoint" />
            <mxPoint x="310" y="779.5" as="targetPoint" />
          </mxGeometry>
        </mxCell>
        <mxCell id="-eTZZblMJ3lCmIqNIsWR-33" value="" style="rounded=0;whiteSpace=wrap;html=1;fillColor=#d5e8d4;strokeColor=#82b366;" vertex="1" parent="1">
          <mxGeometry x="130" y="700" width="170" height="160" as="geometry" />
        </mxCell>
        <mxCell id="-eTZZblMJ3lCmIqNIsWR-34" value="" style="shape=image;verticalLabelPosition=bottom;labelBackgroundColor=default;verticalAlign=top;aspect=fixed;imageAspect=0;image=data:image/png,iVBORw0KGgoAAAANSUhEUgAAAbYAAAEVCAYAAACMgcAwAAAAAXNSR0IArs4c6QAAAARnQU1BAACxjwv8YQUAAAAJcEhZcwAADsMAAA7DAcdvqGQAAEqbSURBVHhe7d0HfBvl+QfwnyTLtrz33s6OA9l7kEFIgFBKaaGlm9L+W2gLBUoZZZRCGW1paaGTFlpKKaOsJgSSkEX2IgmZdhKPeMZ721r/e0+vLzrr7izJsi1Lz5dP8D3PDWtYfvzevfe+utu2zbFDRse/9tHh4gau62R0A6x3iu0DHcs5Fhe1t/foeCKnWOVxu/28NY8t/c/L42msExblz1tjW9HAsfQYxVU+PJ7zOnHR82P1cRxTZb2UVt/fwTl2fpyMyrZSWr6vnCP2+L2W0urbaz5viXPMl6WUfNtBfWZEPJbSaq9j//0YlWNJeCx88dnj5KTjSWnP9pfHjmWX91vaRGtfRjnW/PmRpZT3d5Cvc+t1lFIDb6v8XvdRiGUp5e01n7dEYZ0spYOeLxFCCCEBgQobIYSQgEKFjRBCSEChwkYIISSgUGEjhBASUKiwEUIICShU2AghhAQUKmyEEEICChU2QgghAcWvCpvdJr+XnRBCCPGUXxS2ptIObH7yJN694zA+fPAYGoWYEEII8cbIFjahgVaxrxFv/t8hnPhfDSoPNqNk8wW89b1DKN/T4DxwGCGEEOKWES1sDec6sPHRU+jtsPKMQ0+bBZt+fgINZ9p5hhBCCHHPiBU2c5cVu54/g66mXp6R62o2Y+fzJTB3yoseIYQQomVECpvdBnz8bAnK9zbxjLKK/U3Y/pvT1KmEEEKI20aksJ3dXo/ijRcGvoYmrGfX3M5uFbYlhBBC3DDsha29rgebHj8FS7d7pxjZdh89dhJt1d08QwghhKgb1sLW027BhkdPenzdzCwUt42PHhM7lRBCCCFahq+w2YEjb1Si6pMWnvBM9ZEWHP5POd0CQAghRNOwFbZTG+uw/0WhMA3CgX+W4dQHNTwihBBCXA1LYWPX1fb8uRQ26+CaW3Zh/z1/OYv2WrreRgghRNmQF7beDgs+eOgk2mp6eGZwWFH74MFj4vU6QgghpL8hLWx2oYG29+/lqPm0lWd8o/ZYC/b97ax4fEIIIcTZkBa2ir2NOP7u0FwTO/FeFcp31/OIEEIIcRiywtZ4rhPv33dCHDprKLDjrr//KBrO0niShBBCLhqywvbx787C0mvjkbLwGCN0eh2P5Fg+LCaER8qswvF3PHuaR4QQQsgQFDabxY5dfypFxb5mnlEWkxGO2d/Kg065rgmVDZh9cwFiMk08oez8/ibs+kOJ8H21iyghhJDg4PPCxgYu/uTVSh4pC40MwcqHJyEqNYxnlEUL6y8XtmPbazn8ark4rxshhBDi88JWuqNJbLVpufSGTCSPj+KRtpRx0Zh6YzaPlLH748p20EDJhBBChqCwdTUrz6/Wp2BxEmZ9LUf12lp/bLsZX8tF4dIUnlGmNq8bIYSQ4OLzwhaXrX5NLCYzHAu/X+B2UevDtp9/6xjEalxvi82O5EuEEEKCmc8LW8GiRBhCXQ+rN+iw4oEJiE4L5xnPsP1WPDhJPE5/7PsVLE7mESGEkGDm88KWMiEaVz05CZnTYsUej/oQHdImx2D1LyYhvSiGb+Wd1MmxWP3EJUgrihWPy46fMS0OVz55KVImxvKtCCGEBDPdbdvm9Ovp0b9FpHOaKcZ1nUy/vvtWsx12GxAS1lc/L663C8ulOxuw/r5jioMj64SW2erHipC3IInvJj+2pccmnqI0GB3HZseT8yB2uefAEbv9vDWPLf3Py+NprBMW5c9bY1vRwLH0GMVVPjye8zpx0fNj9XEcU2W9lFbf38E5dn6cjMq2Ulq+r5wj9vi9ltLq22s+b4lzzJellHzbQX1mRDyW0mqvY//9GJVjSXgsfPHZ4+Sk40lpz/aXx45ll/db2kRrX0Y51vz5kaWU93eQr3PrdZRSA2+r/F73UYhlKeXtNZ+3RGGdLKXzfYvNGSs6F4uab4WEGaSiRgghhPShykAIISSgUGEjhBASUKiwEUIICShU2AghhAQUKmyEEEICChU2QgghAYUKGyGEkIBChY0QQkhAocJGCCEkoFBhI2SIdTV0oPi942gqaYDdSjO9EzLUqLARMkTsVjsO/20v/nv9P/Hxzzbg3S+/gs33rkNPazffghAyFKiwETJEzm08jUN/2o3e9h4xtgmttfKtZ1C9r0KMCSFDgwobIUOg4UQd9j6zHXabfAx0FrdVtvCIEDIUqLAR4mNtVa3YeOd76Gro5JmL9CF6xOUl8IgQMhSosBHiQ+x0485ffITO+g6ekcuYnYP0Wdk8IoQMBSpshPiItdcqFLXNqNxd7jxjoiRpUiqWPXU1QkxGniGEDAUqbIT4SMnaE+I/JYZQAxbctxyGsBCeIYQMFSpshAyW0Do7v7MUu3+5DTaL631qodFhWP6rNUgYn8wzhJChRIWNkEFqq27Fjsc3i6cilVz6zdnInJvLI0LIUKPCRsggdNV3YOv969FR284zF+l0OoxdMwkTb7iUZwghw4EKGyFesplt2PnUFtR9WsszcumzsjD/3mUwGA08QwgZDlTYCPGC3W7HkRcPoGJ7Kc/IRWXEYM7dS6CnokbIsKPCRogXSv53Cgf/vEexs0hYTBhW/f5auhGbkBFChY0QDzUW1+PAH3bxqB8dMOuHixCVFcsThJDhRoWNEA+017Rj7S3/RecF15FFdHodpt0yB+OumSR2HCGEjAwqbIS4iV1X2/mLLTB39PKMXM6ifBR9eTqPCCEjhQobIW4Qh8t6fAvO7yzjGbn4MYlY/MjlMNJwWYSMOCpshLjh1NvHcPpd5eGyTIkRWPLoShgjQ3mGEDKSqLARMoCaQ5XY/9xul7nVGFbM5t1zGRLGJPEMIWSkUWEjRENjcQM23/chLF1mnrlIb9Bj5q3zkLe0kGcIIf6AChshKrqbu7Hrl9sUJwxlCq4YJ/aAJIT4FypshCiw9liw9cENqD1UzTNyWfNzseD+pTQNDSF+iAobIf3Z7Tj68iFU76/kCbnI1CjMuWOhOMcaIcT/UGEjpJ/i/53Eob/sVxwui3UWufqF6xGbF88zhBB/Q4WNECcXjtWp9oBk5t65SGyxEUL8FxU2Qrjupm5suGMduhq7eMaJTodLvjYdY9dM4AlCiL+iwkaIgHXn3/rgRnQ3KxQ1Qf7yQkz/7hweEUL8GRU2EvTYtbT9z+9B5Z4KnpGLSo/B/HuWiPetEUL8H31SSXCzA8f+cwTHXzvKE3LRGTFY+ezVCIsN5xlCiL+jwkaC2oXjdTj01/1igeuP3aM26/vzEJdLPSAJGU2osJGgVX/iAj64fR3MHQrDZYXoMffOBchbRsNlETLaUGEjQam3oxe7n9mJnpZunpErXDUWY66cIM6ITQgZXaiwkaBj6bFi493rUXtYebiszLnZmHvXYhpZZJTS63SICjEhzhiFcD1NJRSMdLdtm9Pv6kL/P1F1TpcfXNfJuEyHrx7bheXSnQ1Yf98x2KyuFzh0Bh1WP1aEvAVJfDftY7PjyXkQqzxut5+35rGl/3l5PI11wqL8eWtsKxo4lh6juMqHx3NeJy56fqw+jmOqrJfS6vsf/PN+fPLCQXFG7P5ismNxxbNrEJ0ZwzOM1rGVv4/H77WUVt9e83lLnGO+LKXk2w7qMyPisZR2fr+ZvhX992NUjiXhsfCl73EadHokGmORFBqLGGMkkoTl1LB4pAj/4o3RMOnDEG4IRZhePtmr1W5Dl7UHXbYeNJk7UNPdgOqeJtT1NqPF0iF8bRHy7Xxrxs3HJnIsu7zf0iZa+zLKsebPjyylvL+DfJ1b77eUGnhb5fe6j0IsSylvr/m8JQrrZCkdFTYRFTZuhAqbXVjuv6tL4mLsOKbKeimtvP7M+mJse3QrbGarGDtjnUXW/O06JIztP7ea1rGVv4/H77WUVt9e83lLnGO+LKXk2w7qMyPisZQemsKWH5GBOXGTcWlMoVjQWOEK0RmEVUrHdZ9d+M9ss6LH1osGcxv2NJ/E3ubTYqGT03qsjmWX91vaRGtfRjnW/PmRpZT3d5Cvo8ImQ4XNo2OJnGJx0RF7dzyNdcLiaCxsNnMYWk5MQ+vJS9FzIV1oOelhMHUgKv8U4ooOIDyVDT6sfmzHMVXWS2nX9TWfVGPDHevF62v9sdOOC+5fgjGrxwuRJ8dW3tbj91pKq2+v+bwlzjFfllLybf21sEWGmFAYkYXJ0fmYETceyaFxfM3QY8WurLMO+1tLcKK9HOe6asXiJ+f82B3LLu+3tInztox7sebPjyylvL+DfB0VNhkqbB4dS+QUi4uO2LvjaawTFkddYRNaZ+VvfQNd1bnicn86vRUZV/5HKHLFPNPn4raOY6p8byktX2/usuDNL7yGjlrnU04XTb5xCmbfsUD4UWD7eXJs5W09fq+ltPr2ms9b4hzzZSkl39bfCluEIRzXpC3CksSp4rUxvW5kuwCwU5gt5g68U7cbmxuOCs+t79k5P3bHssv7LW3i+jzllGPNnx9ZSnl/B/m6YCps1HmEDBvWMqv7eBW6qvKEoP8Pp4PdZkDdttWwdpt4ZvDYhKEbfrRetagVXDEGs2/vK2pkuBVEZuIrWavwxMTvYnXKXLHAjXRRY9g1vYTQaHwj63I8NeEb+GzqPPGaHvF/VNjIsLEJxaqtpIhH6syt8ajffRmPBod1EDn84ieoPlDFM3LhCSbM+9FCoaVIRW04sVc7JiQSdxTciIfG3YwVybMQa/TfWRPShIJ2Xdp8PDH+a7gxY5FLBxXiX6iwkWFj6YqEpcO9X15tJZP5kvfY1DNH/nEYx15VGS4rMwZr/notwuN91zokAzMJLbLr0pfi5xO/g6mx43h28Cx2KzqtPWg2t+NCbzNqe5rE5V6bhW8xeKzTylVCEX5k7JewImkqQvU0g7o/omtsDF1j44b2GltXTRbK3/g2j7XpQswY+3+/EN6aviNcPLYjo/K9pbQONYeq8eEd62HuVB5ZZOljlyNvab4QuXm9wOnYFylv6/y85VRiKa2+vebzljjHfFlKybcd7mts7NTepOgCfCf3s4gOiRBznjLbLeixmtFq6cTZziqUddWInT3Ku2vFoubg+jhZAUoIjUGBKQOFkekYE5EuxuxaHlvnbQ/L0x2V+FPFh0IhbYFNvH2EH0c6nOtjkVOONX9+ZCnl/R3k64LpGhsVNoYKG+f0XourfHg8YbmnMQWlr9zGY2360B6M/c4TPGIuHttxTJXvzb/Un2wQr6t11nc6Ek5YUZt310KMv3YiPwXp5odUSjuvV97W4/daSqtvr/m8Jc4xX5ZS8m2Hs7Cxm6W/lHkFpsWOFwqJZ6fxzEKL69O2czjeVoqK7jqxNca659vsfTOcu/k4ub7nHR1iQkpYHNLDEjEuMhPTYgrFx+kpVlDXXziEt+v28OImkL6lZ4+tL9b8+ZGllPd3kK9z6/2WUgNvq/xe91GIZSnl7TWft0RhnSylg2H2N7Ie5hHn4QGdeVDY2HJzRRdKNl2Awn2y4i+csctTEJcj/GUn7ubJsRkPYo8eN+NBLC4OYn+tdeKim9uKPIjFxUHsL3KOHX8Tt56aCpt54NEgYicdQlSec89IN7+X8IV1FtnywEdoKet/P5LDuGsmYNq3ZjpdV3P/2A7O693cV6ISS2kv95c4x3xZSnmyL+NmLKVd1+uFfxnhSbi98ItCay1faLW5N5oLa5nV9jRia8Mn+FP5O9jccAhnOivFosYKycUeioybj1PiiHuF78FuzC7vvoBDrWewsf4QKrvrxdYkK77utuSMwnYTo7KEVmAGTgktOLHlKO3m3mO5yI1YltLaXmsdoxBLKS/2lVGIZSkv9pcorJOlqLA5UGHjnGJxcRD7i5xj4ZdciBW9zUnivWtaQiLbkLH6dWF752sj7n0vq9kqFrXqQ8rDZaVNS8eiB5YgJNy51eDesS+mnde7ua9EJZbSXu4vcY75spTyZF/GzVhKu66/PHkuvpN3HRJDY3luYJ+0FuOlivfxXt0OHBaWu2z97zt083FJVGIp7ViwCcXyvFDYdjafwP6WYjT0tiLHlOz2sFypYbGYHluAenOrOLKJg5uPReJGLEtpba+1jlGIpZQX+8ooxLKUF/tLFNbJUtTdnwwnnQ0pC9cjIvOc8LdE32kkOX1YN5IXfgBDuPJM1lpYD8iDfz6Aih0Vzuc0JHH58Vj2xEqExYTxDBkq4fowXJ++DF/KWiV23x8I6+BxuLUEjxW/hGfOvIpT7eXotCgPUD3U2P1rNUJhWndhP+4++Tf8t2anUKga+7USlaUIBfw72aswL3acOGYlGRlU2Miw0od2I+PKV9Da+WeYpb9qHZrrtiDr2r8iZuwxnvFM2ZZSHPuP8r56o15sqZniacLQocZOP34t+ypclbrI5W9rJWzsxl+deQW/O/c6TgsFzZ+wMSbfqt2FR0texX+qt4unSAcSYQjFLdkr8Znk2eJrQYYfdR5hVB63289b89jS/7w8nsY6YVH+vDW2FQ0cOz/G7vpMdJSNRU9DOuw2PULjLyAy+wxMaeXC+8M+4J4drw/7y/f92zag+uAFhJrSoNcbhSLXKPxG7MCXP/wSQsLYdRj1YzuOKV9ffbBGOOZa2BV+lkJMIUJRuwwFlzvPrea8v5sXwqW0fF85R6z0vB1UYimtvr3S89aO+bKUkm87qM+MiMdSmo2qH4Fv516HS2LG8py6VksHNgmtovfrdqHH1r/n6sVj++xxctLxpLT7++eZUvH59IWYFJUtdv3Xwlp+79btw9oLB9AtPT/3vpfmz48spby/g3ydW6+jlBp4W7c+MxIhlqWUt3fvc6OwTpaiU5FEiV2PC7tXovy/twhfr0Br8SVoO1OEhv1LUfHe11Gz9Rq+4eDYbRb0dJxHV9s5WFwGnnUfu6624xfbFYsaw3o/5i8r4BEZSnPiilAUM4ZH6lg3/Z+degHv1GwTByEeLUq7avHMuXfwr6otPKOO3d5wbepsfCF9gfCrtv8vYzKUqLARF83HZqHxk0XiYMX92S0haDk+E9UfXScuj7Tupm6s++46tJQrFEahJV6wshCzb5sjngEgQ4f94p4TX4QvZq3SPP3WK7RcPqrfj6dLXhZ7OLpz3crfsBvBN9YfxqMl/xEHSdbCXpflCVNwdfIMsdCR4UGvNJGxdkWh9uOrhdaPdtFi3fa7anN4NHIO/e0g6o4q/3KJyYrGvDvni9fXyNDKCE/BV7PXaJ6eY70OX6xYi39UrEObxfX+wtGG3Zz9WMlrYhd/LaygfSF9PpYlDDycHPEN+sQTmdaSIqGoDXwDLSt8HRXO16yGFxsu6+i/juLEmyd4Ri4qPQornlpJw2UNg2xTGu4ovAmRGr0f2dBWfyx9Ezsbj4zKVpqaHpsFT599Cx81KA/b1oe13D6fNh/TY9hIN2SoUWEjMr3NyXxpYL1NSXxp+FXuPY8Df9yveF2NTRi68L7FiC9M4BkyVNiNzF/OuhJJGnOmsU4Ufy57C3uajgVUUevDOr787fxGvFmz6+LIIwoiDGH4Qe6VyKAZAoYcFTYiw+ZDc5s0juPwaippwo5f7IC11/Wxsmtps26dhYyZmTxDhtKVqQsxNlL9lHSTuQ2/KH4Rx9rO8kzgeq9uH96u3cMjZexU7U0Zi/1iWp5ARq8ukQmLv8CXBhaWVMOXhk9XYxc23bsJ7TXKc6tNun4SJt9YRJ1FhsGUmLG4Nn2p6i9pds/Xv86/j+KOCp4JbKxTyX9rd2N9/SHxeqKaS6Nz8aW0hXQD9xCiwkZkogs/hTG6mUfq9MYeROb0n+V6aNmsNux8ehdaK1p5Ri65KAVTb57OIzKU2JiP12es4JGrbmsP/lL2FvY3H+eZ4MFOSe5rLuGRsmWJRZgQSWcVhgoVNiKjD+tC6sJ3hcKlfm+RzmBF3JQ9MCUrT945FFhR2/vcPpz76Jw4dFZ/cXlxuPL5qxAeRyOLDDXWEWJV6gLkRqiP+bmhfi/2Nh1XbbewiTpzTWmYG18kTmXDJh0NFF3WXjxf8T7OdKqf0WADLF+XOmfAm7yJd6iwEReReSeRcfmr0JsaecaZGSkL1iJl7ofDeo2tdHMpTr55kkdybMDsBfcuREgYTfo4HHKEgnZt2lIeuTrYfBLv1WxT7SjCBhX+Tu61+Om4b+K7edfhx2NuwgPjvi4UuDy+xejHOsy8WLlZLHJqxgsttjXJM3hEfIkKG3Gh09sQVXAc5ae/hJK996P69MuoKXkVZ/f/DPvfW4TwrC3CT47yIMZDoeaTGmx9ZBss3a7j9LHhspb+fCnSpmrPGEB85/LkOeJULUrqehrxz/PrVEcTYQMi35xzDWbETZSOwVqAqWEJ+HzGcqEl595I+qMBu3n739Ufi9felLArbCuSpiCdekn6HBU2oqqzqV4saqy4Fe++B5UnX0Cv8GG19HjQc3KQupq7sf1x5R6QzOQvTEbeMro3aLikhidiTvwlPHL1n6oNaDIrD4/GOkt8MXMlZsdP5hm5zPBksUt8INnc+Cm2Nyrfa8nEhkRgWaLy60G8R4WN+K3ulh58dK/KhKHCn7u5S3Ix7VvToaPeZcOCjaDxtexrVFtruxqPiJ1FlE5AslbZiqTZWJgwlWeCAzsd+0HDJ+jWGA+TDbnFprshvkOFjfglNrLI3t/vE0ftV5I0IQmLHlgMQyhdfB8uuREZGB+VyyM5NlL/e7XbeOSqKKYANwqtNa0u7tXd9eI0MYGmsrsBr1fv4pEr1pHks6mzxeJPfIMKG/E7rKgdf+MEStYpd5mOSI7Agp8spAlDh9ns+CKxm7+SLfX7hcKkfA8kG53k8+nLNQcBZgXt7Zptmi2b0Yq1YFmr7XSHei/ioqhsJIZG84gMFhU24nfKtpZj9zN7YLO4dlBhnUVWPLFCbLGR4cMK2uJE5R58jb0teLv6I5U+kMBXslZr3hpgtlnwXOmbONRymmcCE7vepibeGIlpMYHTK3SkUWEjfqW1vAV7frdPbLW50AEzbpmOpIlU1Ibb4sTpYo/G/tg1pPV1O1VH2pgYnY8FCZfyyBXb683qLTjWds6RCGAHWs+iyaw8Yg6zKmkq3dfmI1TYiN9gN2G/9+21aKts4xknQlGbfMNkTLlpCg2XNczYkFkrU+bzSK7D0iW0tJTvL2RWJ8/XPAW5reEg3meF0T58t4+MlE5rD/5ZpX4dMjU0FlOis3lEBoMKG/EbNrMN5k7Xe9WY9GnpmH7zNB6R4ZQVnoo4YwyP5A40H0d9bxOP5CZF5aMoRn1qo9qeRvy3eiuPgsPB1nNiZxI1c+PG0hiSPkCFjfi96IxoXP70CuosMkIKIrNgUri/jLWy3hVHGHFl1BvxlewrVVtrbGSOf1duQLNZoXUewNjN2sc7zvPIVYEpBaYAukl9pFBhI37NGGnEkocXIzSKPuwjpShmDF+SO9VehoZe5QGzCyOykByqPqLGx42HcajlFI+Cy8EW9euJyaEx4k3bZHCosBG/ZQgzYP5d85B2aSrPkOHGrq+Ni1LurXewWX1EjVlOQ2b1x7r0b67fz6Pgw1pszZZOHsmxziOzY0duZvpAQYWN+CcdcOlXL8HYK5VbC2R4FERkKo68b7VbUdJRziM5NsjxvAT1YbeOtZ5BeVctj4IPOw27of4wj1wtip/Al4i3qLCRYceGwIrJ1r4ZNWt2Ji758hQekZEyXWh5KemxmVHVXc8jubnxUxBpMPFIjl1jer36I/GXezBjXf/VeoKmhsUhXfhHvEeFjQw7q9mGroYuHrlKvTQVy59YhpBw5VNZZHiwIZ4mRBXwSO5Ya4niCP56YZ95GoMkn2wrFYfOCnbN5g40atzTlhWeyJeIN6iwkeFlB069fRoVuyp5Qi48LgzzfjQbxggjz5CRwnpCRoYot7w+bvyEL8nFGaORojINC+s9eUDjnrdg0mOz4EKv8kzwTAZNZTMoVNjIsDr3USl2/3afeM9af2y4rFXPXkHDZfmJCINJcX40djrxaGsxj+TY/W5RKr36bMJ+5zqHb9Z1f2a2W1Ddqzy9D5MWFssuMxMvUWEjw6a5tBl7f39AsagxM749DUnj6BSMv2BDaCkVNjY2pPr1oXhx0GMlHdZuVKoMlByMqruVZqh3SBRavjqNEVuINnrlyLDoaevB2ts+RFu18nWFiddNQNGNk8XekMQ/RISwwuZapNRGGmEKI7P4kqtjbWfRazPziFT1qL+O7F42dr2SeIcKGxlydqsdH/9iF7rqlTuMZM7JwJwfzIROTx9kf8K67bP72Ppr1Lg2lGNK40uujrQqT0MUrGpUbm5nTAYjlbVBoMJGhpbdjv1/PoRzH5XxhFx4XDiWPrIYISbqLOJvlEbzZzqs6j1ak0LVu6mfblf+GQhWLSo3aTPsjwo6feE9KmxkSJ16rwSHX1Keh8qUYMLKXy9HeLzyL1AystTuReuydvMlOb3wn9pgyazDiVZLLxj1WM3otSsP+h2uN9JgyINAhY0MmZaKVuz5rfLQSfoQPWb83zSkTE7mGeJvIlS6+rPZrpXEGiNVBz1uE1onanO2BSs2l12LWbnVxl7H6BAa9NtbVNjIkGgqbcHaWz9Eb4drZwE2n9r0b12K8deM5Rnijwwqvx5YV3UlSj0o+yjdzE0cI7io0Xo9iTYqbMTnLN0W7PndAXTUKf81mjUnQ+wByYbWIv5L7ZcuG5FEidaEosE+hJYaasMODSpsxKesvVZsfWwXKnYqjyySMiUZlz28SLwZm/i3bpvyKUe1+9TMditfcmXUGfgScWYyqLfKuqzUyvUWFTbiUyfeLkbpR+WKf4pGJJqw8MdzERZL1w5GA7XCZtQp/1HSq3G6UW0Km2AXqVf/LFBh8x4VNuIzZdsrsO8Ph2Czup52MoQasOyxJUgYk8AzxN91q/xiDTMot9hYBxE1UQaaPLM/dgN2uEqLjZ26tYJO33qLChvxiYbiJnz8xG5YupQ7FuQuyUHa1FS6NWcUabd0KV4bM6nc38a2bVEZsZ612BJDlW8FCFaRIeGqH4cuofVrpwtwXqPCRgbN3GnGRw9sR2eD8v1NjF2hFUf8W5etW3EIrASVe9WY6h71sSAnRuXzJcKkacy51m7pFm8HIN6hwkYGhRW1zQ/tQHPZADff0md01GH3qyldN4sPjeVLrso6a/iSq6KYQr5EmPRQ9alp2qxU2AaDChsZlKP/Pomyj8/ziAQSNsKIUpf/RKNGYetSL2xTY8YhhHpHSthM2WqoxTY4VNiIV+x2u9gD8uALR6g1FqBYi61TYVxINvlokspEmNXdF1TvfwvVhyDTlMKj4MY6jqSHqf+BwCYhtdFFNq9RYSNeaS1vw97nDsFuow9foLLarYoDF7MbtOfGX8IjuSZzq9DaUBsmyoDCiEweBTd2L2CKxindiu4GvkS8QYWNeKz5XAvW/fAj9LbRfTaB7kjrab4kNy/hErHA9ddq6UC9xnQs02LH86XgxgY5psI2dKiwEY/YrHbs+s1+tNd08IxcTHa0eM8aCQwn287BbHc9tZgSloB4he77rMv/nibl2RyYydEFSKBu/8iPSEGEQfnmbHYKsqKHCttgUGEjHmGThraUt/FILnFcPBbcNVsobPRjFSjYdDMl7RU8uogNkJxtSuWR3M6mw6pztrHxJL+SuVrYO7hvaFwcP5EvuTrecR7dVuXrlMQ99BuI+ERkSgSWP7YYEUk0wkSgOdxyii9dxGbWnhyt3H2fdTrZ13ScR64mRuerFsVgEGeMxMxY9VsfNjWot3iJe6iwkUFjc6stvHcuYrPoFFMgKu4oV5x2ZmbcJNUZGvY2H4PZpjwKjckQhhXJs3gUfGbGFChen2RaLV043VHNI+ItKmxkUPRGPebdMRM58zJouKwAVdldh1az6zXVhNBYsbgpYcWwqrueR64WJU7FJKHlFmzYKdgpUTk8clXV0yQOp0UGhwobGZQxl+dh/BoaUSKQdVt7sKf5KI/kPpN2meI0Nmworlcq3+eRK9Zi+UrWasQZo3gmOLBBjydEZfHI1amOKuG1U27pEvdRYSOqolI1rpcJrbOsOelYeO8c6gUZBDbW7RKvnfWXGpaIcZG5PJI72V6GA80neeQqPTwJV6cuFItcMGDP80vpCxCp0huSddTZ3qT+ehH3UWEjqiKSlEdxZ0zx4Vh4j1DUjFTUgkGzuQ37m4/x6CI2av+SxBk8crW+bqfiDAEMK2fLk2Ziauw4RyLAZYYnYHH8ZB652tdyBjU96vcAEvdRYSMu2Ggip945g2OvFfOMHJswdOXTSxCdEVynkYLdnqajsCkUqelxE5GvMqJIcUcFtjce4pEr1rtyoXizd+BbEDdBeL7Kz5Sdfvyw/giPyGBRYSMu6k81YtezyhOG6vQ6zPnhdKRMTuIZEixOtJ0VW279sXvTvpp1teIs2Wwg35cq1qK0U72nHxt7Uq13ZaBg1yGXJU7hkatqoaVWSTdl+wwVNiLTUt6KzQ/tgrnD9QZRVtSmfnUyCpap9+oigYudUvxb+TviGJL9ZUekYUas8k3HbCSNVys/VGztMZ+0FAf0gL9GXQjuzF2jem2N2dBwGJ0qM5YTz1FhI5JeoZhtfngXWiqURxYpWJGDmf93qXjfGglOn7YW42hrCY8uYtPR3JR1JcL0oTwjd6K9FH8ue0vsINGHteaOtp7B+rpdPBOYpsbkYWK0ek/Isq4L2NKofkM78Rz9hiIidtpx128Pov5UE8/IxRfEYs5t03lEgtkHdTv5klx0SAS+nq18SpLZ3XQMT5X8E+/UbMOm+v14qWIdnit9g68NTBGGUHw2ZY7wi1b5VKtZKPRv1u7hEfEVKmxE7Cxy6MXjOPXeWcVpaFi3/zV/vFwcNosQdq1td6NyR4c58VPECUUdfR7lWAvtVHsZ/lu9Gf8Qitrm+gOKtxAECqPQir01ezVyTOrXo6u6G4XWbCWPiK9QYSOo2FuDo6+6jgfIsOtq8++ahbAY5VNMJDi9fH4tahSmVmEdSb6R8xmMjczmmeDFuvYXRatfj2Y9If9euYVGGhkCVNiCXP3pJmy4Zzt62107ixiMeiz48SzkLqLJIYkcm0z0f7VbxZnU+4s0hOPLWasRExLJM8EnNzwZX8pYJBZ6Jaz1uvbCQZR01vAM8SUqbEHM0mPFtsf3wtqr3Ftt7FUFGH91AY8IkdvVeASb6/fxSC43IgM/yL9BLHLBht2I/cO8qxGmMNRYn4bedmxsoPvWhgoVtiDFekB+ILTUFDuL6ID06SmYd/sMj3tA6hCF5NxrMWHR87j0ircx5fJXMWbO44iImS78mRrY9yoFG9b9/42qjSjvcm11sHd6bFQOvp6zRuzuHiySQ6Px/dwrNWfH7rT24I/nP0SL0OolQ4MKW5A6+PdjqNyjfBokNicaSx+ah5Bwz4bLsnREo3n/rSiY9rRQ3K5CTPI0xKXOQ/rYm5AQ+wRqt1wNu5WG4AokndZuvFj+rti7T8nM2In4plDc2AgjgS42JAI/yL0aWeHqnUXYKcg3anfjJHUYGVJU2IIMuyZSvL4Un6oMlxUeF4ZFP5mNSK0BkBVYe0w4//6X0HOBdRpQaJnZwtFyYgaaPw3eebgC1dnO8/jjudfEWQD6YwVtfsIl4kj+oSq3AQSCbKGY3V3wWeRHqE+gyq5G7m4uxmaaSHTIUWELMlUH6rDtif2wmZWvq+Uvy0H61BQeua+zMh/dtdqdTOw2Per3LIfdTD0sA82hlpN4X+X+NuaypBm4u/AriAjAa24pYbH4Uf41yDNpf25OtJ/Hnys2qLZuie9QYQsibdUd2PGrg0LrSv2DVbqlgi95pv3cRKFyDfzjZOsNQ9u58TwigcImtEferdmKDRf2KI7mz25QHheVg9vyP49cUxrPjm5sGpq5cePx8JgvIlnjmlofkyEUccbg7Sk6nKiwjaRh7EzR09aLdbdvRXNpK88o62rsFq8DeMra7f6pS0snzQoQiNjPzauVH2B3k/KkpMzk6ALcN+4bmBk3gWdGJ9aN/1vZK/HdnNWIDjHxrLZ8oUX387E3anYsIb5BhW0Y2XrD0fDJMpx7/S4c/8NvhH+/xcm/PoWKdbegvYzN0zQ0hY6NJrLn90fQWtHOM0NAr3xqU4lO5/62ZHRhY0G+UP625jxs4fpQfDfvc/hq1mrEG6N5dnRgrbSxkRm4p+B6LE6YrDoNjRp2+8P3c1cjLSyOZ8hQoMI2TOxWI85v+Bpqd34WXRdypNN2rNi1lRah4v2b0Vo8Tcj4uLgJja8DLxzDyXfPKt5M6yuhsfV8aWDhqVV8iQQiVtD+U/khtjccEk9RKmGDJi9PnoUnJn4PM2LZPGX+/6uIPeYb0hfhp2NuwMQo9UGNB8Jabg8WXk8ttyFEhW2YNBy+DB3lk3jkym4zoHLTl9FZVcgzvlG6vRJHXz3No6ETM/Yo9GHdPFIXkXUWptTzPCKBihW0Fyv+h5cr1slG9O8v3BCG7+V/DrfnC8UiOk9sEfkbNubj0sQp+Pm4r+CqlFluPcY2SxdfUhYTEoEf5l6J9LB4niG+RIVtGFi6olC752qhxaT9crPi1nzKd93h2fW0zQ/vgbnTwjMXsRuvfTn9THhyNeIm74VOr/5LzBDRjuQFHwqN0qFrORL/wa65barfh0dPvaA4QWkf1hK6NHYM7hnzZfyo8EbkmNLE3EhipYt19pguPK6nJ9yMb2atRGZ4omOlBjav3PH2Ctx96iXsaT4tvgZqck3JuCf/GqRSy83nDLO/kfUwX+b6/zXiHGutE7icb9Y+VnNFF0o2XRB+4fOUEzb47tjlKYjLieC7eXJsxoPYo8fNeBALi53VY9ByejZPaNOFWBA/cTePGO1jy9dfXO5s6MaHP9mJ9lrl0Q0mfU54TGVtsPa6FqLp3yoSXhJ2LOdjM9pxRFYpjNEt6KrLgt0sn1QxMqcEacvfEgugYzfPju12LKU92d/NbaW0F/tKVGIp7eX+EueYL0spT/Zl3IyltPL6Zks7Pm0tQUZ4EpI1WiisJZQaloAFCVMwPipXnP6muqdRaPH1v1an8jgkbsZS+uJ6tpQhFLCVSdNxQ/oSXJE8HREaE4Q667FZ8EbtTrxSvR2dth4cEwpcUmiMeI+bGnbsSVGZONlRxVt5Ko9VIsSylNb2WusYhVhKebGvjEIsS3mxv0RhnSylo8ImGuLC1t2YjtaSGTyhLcTUhvjJzhMvah9bvt6xbOm2YMvP96H60AUx7i9pfDyWPTRXPEXpy8LGdmGFK2HqTvF0oymjHFH5p5A8byMSpu1ESCTvvCLu5tmx3Y6ltCf7u7mtlPZiX4lKLKW93F/iHPNlKeXJvoybsZRW216HVksndohT3diRbUpFqMY4iqy1liIUwGmx47A6ZS4SjNHi/uxoFtgUZttW+759VGL+xWQIF7/HpKgcfCVrBW4UCtrEqGzEGiOFTfrv64q1yi70tuKP5evxcdNJx6lXYTez3YJ9LWeQFhqHLFOS6pHYiCVFwvc+0l6ODpeb3PvvJcSylMJ6idY6RiGWUl7sK6MQy1Je7C9RWCdLUWFzGOLCZm5LFFps7p1iNMY0Ci0254kHtY8tX6+DzWrHnueOovj9Mp6TSxwXjyt/s1ichubwP0/6tLD1xWzX0LgGmFKqEC78C4lgBc1pW3FRed+LvIyltCf7u7mtlPZiX4lKLKW93F/iHPNlKeXJvoybsZRW2/5i/pTwy/vTNuGXPWu9Cb/wB8I6leRHpGNRwqWYEzcRM2LHIys8WSglNqEIdIvFQ/379pHHOuGYrJBNixmDNULhvCplNlYnzxS+RxFShMfk+Nl3T4/NjLdr9+AflZvFmbCl7yUdQodjHeeRaIzSnJctOiQcl0Tn4riwrfz6nMJzkaUU1ku01jEKsZTyYl8ZhViW8mJ/icI6WUr4c+S2bXP6lRXXnS5uoHBAZx4UCLuwXLqzAevvOyb+Mu5PZ9Bh9WNFyFsg/DCIu2kfmx1PzoNY5XG7/bw1j81aUFEo/ufDsJkHHnUhfvIOpC95nUeM9rFlz1t4wGc2Vgittf2KBSs0yoiVTy5ExnTHCAkvrXxLvL+tv2/tupF/uDW+t2jgWPE1FBc9P1YfxzFV1ktp9f0dnGPnx8mobCul5fvKOWKPf3aktPr2ms9b4hzzZSkl33ZQnxkRj6W02uvYfz92H5gBVwhFZXHCVKHIJQpbuG7jjhZzO6p6GsRTls3CMit2HZZucQxLdgoz3BAqzuwdZTAhXigumUJBZYXR3XvP1LC51M501uBfVVuFglbn+n47vSZ9vpO9EoviJ/JIWUV3A35Ttg41PS080/91EWJZSmG9RL7OrfdbSg28rVufGYkQy1LK27v3uVFYJ0tRYXMY4sLG/tfw6SLUbPt8X0JV/ueegSnVubWlfWzn512+oxobH9gtFFLXohYSZsDlTyxA9tx0nqHCdhEVNgcvYyntfmFjOZaNDonE1NhxuCFjBaIGWWyGy6mOSrxRswNnOmqk4bFc3m+n16QPu3/vqxlLhGKu3juaqe9tw5Pn3hUKNpt5o/9rJ8SylMJ6iXxdMBU26hU5TBIm7kb8pN3Cay7/cehjCG9HxvKXhaJWyjOeYZ1Edv/+iGJRY6Z8cTyyZgXGUEYkMLBPQqulA9saDuGeE8/hzeotONtZxU8v+hc21czRtlI8c+5tPFbyGk62n/f4cXbbevHXyk3Y3Kg9CHJSaDRuy7kCqWHUW9JbVNiGic5gRtqi16BPehI9wl98fex2G5prdiL20icQN1550saBsNmv/3crGy5LuUv1uCtzMeObk8RWMCH+qN3ShXdrtuOJ4n/i8dMv4UjrmX4tgpHRbunGm8Ln8z7hMf1aKGoHxcfl/SNjHV/+UbkNGwaYZDTXlISHC69HRjjd5+YNKmzDSGewoLV+A/a+vRB73pyFfW8vxu7Xp+Loxi+ip0t5GpkBCZ+xXb89jNbKDp6QSylKxNzvT4XeSG818X89QquGtdp+debf+MmJ5/Gvyg040HJKvH42HFgr7FxXDbY2HsWzpe/i9hN/wtu1u9DQ26Z5o7kn2Pd4pWo7NjWoj6nJxISYcGv2SqRRy81j9NtuJAittN6uOnS3l8HS23eR2DsH/34cp9eqn75cePd0cY41Qkabmu5GfHhhD3537k3cJRS5Z86+hl1Nx8SOIb7E2l9nO6vx14r1+N6nz+GR4lfwQsWH2NdyWuz1OBTYtbmXqrbgg/rDPKMsT2i5PTrmC1TcPESdR5hh6DzCsOPt/cNxHPpniRg7W/XUXOQu7LsG5nw89WOf+eg8Nj20F3aF16/Pl96+GlHSpKHyY1HnkT7UecTBy1hKe9Z5RE4lFr70f5x64b+k0Fjxhu/08ETEhUSJ87w5/oWJPSHZfXJhOiOssImtQNaLscvaI94nxgpjo9ACrOttRl2P8E/4Kr9/zM3HJnIsu7zf0iZa+wJhwuO8MX0hLk+cwjPKSrvq8ZxQbKu6m/sdQuv48nXB1HmEChszCgtbx4UuvHbTBvH6mhYqbH20YipsDl7GUnp4Cpvb+0rksXQ8Ke3Z/vLYsezyfkubaO3LOOIvZyzCFUlTXdY6a7V04ZEz/0WN7CyP1vHl69x6HaXUwNu69ZmRCLEspby9e58bhXWyFPWKHJVaqzrwvx9sH7CoEUJGhzdqdg94WpJdc7s9dxUKI1KRb0pGUVQ2coQW60iPq+mPqLCNMlazDbufO4rmMvVBZQkho0u3zYyXq7bh/Xr1qX6YbKGQ/azwc/j5mM/j3vw1+MXYL+D3E76KZQmTEa4xTFmwocI2irCixnpAntt88XYBQkjgeLNmL9ZdOMQj97DhuG7OXIy78q5EkpFmp2eosI0iZzadx4n3vLuBmxDi/1jL7dXqnVgrFDdP75ebGJmBx8Zej0ya440K22hRvrsGO351GDah1dafIdSAqLS+DiKEkNHuzdq9eLfugIelDYgyhOP23JVICPKWGxW2UaDlfDs+/uVh9HYodxaZ9rXxiEgYeIBlQsjowO6fe61mN3Y1ez77fYbQYntszOeQHZ7AM8GHCpufM3eZsfGBvWirUh5ZpGBZFi65aTyPCCHE0YPyDqHllmiM5JngQoXNj7HOItuf+gT1p5t5Ri5tahKWPjRLHLnfazodDMKHwBASISxSt2FC/Ak7teit1NBYPFR4rXhLQLChwubHPn39DM5sPM8juZBwA5bcO0O8vuatxJzlmHrF25j5ma3Cvy2YsWYjMiZ+xeX2R0LIyBjs+JRsgtO78laJX4MJFTY/VbLhPPY8pzwqS3hcKK789ULE5Xj3w2q3GVC95XMonPZHRCdNRSibql/4Z4opQOGMn6PinVtgaaex6QgZaWzi0cFiRe3+gjVCyy14rrlRYfND3c092PHMEdjtyn2ipn1tAtKnqk8zP5Dqzdeh+dgcHrnqOD8Gletv4hEhZKQcbivnS4OTGhqD+/KvQlJocLTcqLD5GTb9zFu3bBWLW386vQ6XfHEspnx+DM94rvtCJlpPT+eRuq6aHLSemsojQshIKOmsxQ4vekYqYR1K7s27Kih6S1Jh8yN2mx27fvep6txqaZcmYtYtk8QC562uuizxVKQ72ssm8CVCyEiw2m34U8UmnO2s45nBSQ+LxUMF1yBFaMEFMipsfsJqsWHHr4+gbHs1z8gljo3FsgdnIiQ8hGe8Y7eE8qWB2S3C97JTVxJCRhIrbs9XbERp1wWeGZwIQyh+nLcKmWFxPBN4qLD5ieIPKnD87VIoXVZjE4Uu/elMp+lnBkHnOnKJKp2n4x4QQoZCdU8THj/3Lsq66nlmcDKEovZI4WcCtrhRYfMTZdtrxFOR/elD9Fh091QkFPrm1IExik1U6F7BMsY2UHEjxE90WLrx2/IPfHZakrXc7si9PCBPS1Jh8xNKRY1Ntjrr25NQsDSTT/w5eBGZZxES6TxRoTJ9aA/ii/byiBDiD2p7WvCrsnXijNq+wFpuj4/5LHJMgXUTNxU2P5a/OB1FnyvgkW8YwrqQ85m/CMWtlWdc6Y29SF/2BowxjTxDCPEXzZZOPFP2Ps74sOV2e85yoeUWzTOjHxU2P8V6QC57eDZCTIPrLKIkLO4Csq58Caa0MqFl1s2zrIVoQVhiNdKEohZd+CnPEkL8Tb25Dc+Wf+CzlltaaCx+PuYzyAuQ4beosPkhY0QIFt8zDQbj0PVINKVUIFdoueV//vfI4//yv/A75H72T4gZc4SurRHi51hxe7p0rc+uuYlT3uSsCIhrblTYhllYjHZ3+/DYUFz1zHzE53l+WoANYhwi/OVlDEuA3o3BU3UhZoQKrTdW5Ni/sIRa6MMutuAIIf6NnZb8fcUGn90KwE5HPph/FfJH+TU3KmzDLG1KouYN1jNvmYhUYRtPJeUux9Qr/4cZazZh+poNmHnNR8if8QCM4cE5bQUhwaK2txWPnXvPZy23BGMk7sxhvSVH7zU3KmzDqK26E1uf/ES5B6RQ7Io+X4CJn8njGTfZdajZeh0SE3+JqPhJCDUlIzQ8CWGRmciaeAsq192JnoY0vjEhJBB1WnvwXMUmn93nxorb/XmrR+01Nypsw8Taa8O2Jw+j6Vwbz8jlzEvFvO9Pgd7g2XW12p1Xo+nT+Txy1dOYivJ3b4HNgxFHCCGjT01vMx4881+fdShJFlps9+WvHpUtNypsw4BNPbP7D8dRuV/5By4uLxrz77gE+hDPilpPcwqaji4QlrT3s3TGoPHwQh4RQgKVxW7D78rZNTffFLcoQxh+krdq1E15Q4VtGBx74yyO/ues4ilIU3wYrnpmHmIyPB8uq7s2Wzime7cDdFYVwm6lGbIJCXQ1vS14yIctt7TQGDxUcJX4dbSgwjbEao404sBLxTySYyOLLLhjCqJSvBsD0tprcnuQYltvGOx2KmyEBAPWcntWaLmV+KhDiUlvxN25lwstt3ie8W9U2IZQc3k73vv+LnQ39/LMRayozbutCIUrMgc6k6hKp7fwpYGxm6918GAAZELIqMZ6Sz7J7nPz0a0AbMqbhwuuHhXFjQrbEGHX1bY+eRhWs3IxKVyeiYnX5vLIO6HxdUJxc69YhcbWC8XNyiNCSDDotPaK19yKO2t5ZnDChZbb7dnL/X5WACpsQ8DSY8WH9+9H9SfKYy2mTI7HknunIiRscKcGI9LKEJZYySN1bOzH+KJdQrONRhMhJNjU9bbhmbIPfNZySwuLwc8L16DAj2/ipsI2BI785wzKPq7hkVxkiglLfzp90EWN0emtyL76BYQnn+cZV/qQXqQufkvYZuACSAgJTC2WLvymzHcttzB9CH6YvVRoucXyjH+hwuZDbJLQ0u212P9CseKEoWHRRix9YBricqJ4ZvBCItqQteofiMo9IS73Ya208KQqpC97HXHjD/AsISRY1Zvb8bvyTT5rubH72x4tvBpjTMk84z90t22b0+9XcP+eDDpc3MB1nYzLnGHqsV1YLt3ZgPX3HROvR/XHOlesfqwIeQuS+G7ax2bHk/MgVnncbj9vHtcdb8LaO/eip9Usxs7YhKGLf3wJxl+dI0TuHc9BY52w2Pe87TY9LO1xsPZGiA+cjQNpjGyTjd6veSyR03strhp4ezmN4zmvExc9P1YfxzFV1ktp9f0dnGPnx8mobCul5fvKOWLF5y1SiaW0+vaaz1viHPNlKSXfdlCfGRGPpbTa69h/P0blWBIeC1989jg56XhS2rP95bFj2eX9ljbR2pdRjjV/fmQp5f0d5Ov6nndsiAl35KzEuMhUMR6sRnMnnij7EBXdzTzDKDwuWUphvcC9z43COllKRy02X+mo78a2p44qFjVWNydek4Oxq7J4xvdYJxJjTJPQSqsUTzuGxdf1K2qEEOI4Lfnc+Y9wttM3LbcEYwQeyFuFcREpPDPyqLD5QG+nBRt+egD1xcqTd+YvzcCC24vEVhshhIy0C71teLx0HYp9dJ9bTEg47spZ5je3AtBv2kFio4kc/Ptp1H7q3Ay/KDYrEnO/O5GKGiHEr7BbAZ6r2Oyza27RQnG7J/dyv2i50W/bQTry6jkc/rfycFlsbrXP/mUhYjJp6hhCiP+p623FQ2fe9dkIJey05E/yLkfuCI8tSYVtEKoONuDQy2cUe0Cyi5kL75wiFjdCCPFXVrtNbLn5cvitu3KXYWzEyPWWpMLmpbbqLrz/433oblEYLksoavNvm4wxyzN4hhBC/BcbfuuRs//z2WnJJGMkfpq3CnmmkWm5UWHzQm+HBZt+9gnMXcpDVI1bnY0pX8jnESGE+D/Wcnu24iOc6vDNTdxGvR535iwdkZYbFTYPsbEftz99VBy1X0l8XhQW/qhInBGbEEJGEzb81lNlH/jstGSSMQoP5q8SilsSzwwPKmweYNfSDv3zDIo3VPGMHBtRZPXTs2E0uTdHGiGE+JsuW6/QctuMEx3KwwJ6KkSnxw+yF6PANHzFjQqbu4SiVnWgXuwsosRoMmD+DyZ5NWEoIYT4Ezb81m8rNvnsPjfWcntEaLmNH6ZbAaiwuan6SCM+uO8grD2u08QYQvVYfM8lyJnnP3feE0LIYLRauvEbobgd66jmmcFhLbfvZy1CfvjQzwpAhc0NrOfjzt+eEDuNKJm4JgeFS9N5RAghgaHJ3Innz2/xWcst0RiJh/KvwMQI34xTqYYK2wDMnRasu3MfLpxq4Rm5AqGgzb2VRhYhhAQmVtx+Wb4Rx9p903JzTHmzGIVDOJ8b/TbWYgf2/60EdSeVi1pCQbR4Xc0Xc6sRQoi/arN044+V23DaRy232JBw3Ju7ApN8NMNAf1TYNBx9swxHXy91nktBEhplxBVPzEBUSjjPEEJI4Gowd+DJ0g981lsy0hCKH2VfNiTzuVFhU1Gxtx57/3gKNotrVWMttMvunYJYGgOSEBJEumxmoeW2HSU+mvKGFbe7cy7zecuNCpuCruZebPrZYdWRRaZ/tRAFS6izCCEk+LApbx4559spb36Ss0xoufnuPjcqbP10NfZi3d370dXkOgYkG9h44jXZmP71seIyIYQEI3Hg5PPbfFbcjHoDfpS9RGi5pfHM4FBhc8Kmntn9p1OoO67cWSQ61YR5t03kESGEBK9aseX2Ps501fPM4MQbTXggdxnGmQZ/PzAVNs5mtWPf30pwcm0lz8jF50fh2j/MQ2gkDZdFCCGMY+DkLTjlo5abXqfH7dkLB33NjQobV3mgAYf/rdwD0mDUY/73JyKSekASQogMGzj5ydINKPHRlDdsstIHcpcPqrhRYROwkfo3PnwElm7XziJsuKyl912C7NkjN2keIYT4M9Zb8tnyrULLzTdT3uh1OtyaOR+ZYbE845mgL2zdLWZs+9UJxQlDmcnX5qDw8nTqLEIIIRoumNvx6/LNPrvmlii03B7KW4EoQxjPuC/oC9vBl8+i4Uwbj+TyFqRg5rfGQsemxCaEEKKJDZzMipuvWm7sVoDZMdk8cp/fFrbhKiVlOy8oXldLGheDZQ9cQp1FCCHEA43mDjxbsc1nLTdvrrUFfYstcUw0X7rIGG7A0vunIDTGyDOEEELc1WjuxNNlm3wytmRaqOvv6IEEfWGb991xSCy8+MJFJIZh5ePTkDQmhmcIIYR4qsXSjefOb8fZQbbcDF6cvwv6whadZsJnnpuNK4Rixlppn/vLPGTPHr4pzAkhJFDV9bbjsdINKB7E2JJt1h6+5L6gL2xMWLQRBUtSMeHKTESlhlNnEUII8ZFOay+eP/8xSrsbecYzpzs9b/FRYSOEEDKkanrb8NOz63Cuq4Fn3LezpYwvuY8KGyGEkCFnYcNvnd/udnGz2K34e/U+VPUqj92rhQobIQTmjh6UbTiOY//agwtHK8UBwQnxtZreVvz03Pvi2JJaP2E2ux1r60/iw8bTPOMZw+xvZD3Ml7n+15ecY611ApdrU9rHaq7oQsmmCxCegwudXocxy1MQlxPBd/Pk2IwHsUePm/EgFhcHsb/WOnHRzW1FHsTi4iD2FznHTsvioif7Mm7GUtqT/d3cVkp7sa9EJZbSXu4vcY75spRS3rbkvSPY+uO3UfzOYVTtOoczaz9F0+k6JE5KR1iMSdzGQXn/gY7vmmfUtu3DY/GLm9tK3IyltJf7i1TWSWmtfRkvYllKa3utdYxCLKW82FdGIeYpu/DfgbbzaLJ0IT7EhDjhXx+z0Eo73FGNf9UewsbmYqfi53w89WM76KC7bducfmXFdSflgzP9Yg8KhF1YLt3ZgPX3HRNH1u9Pb9Bh1WNFyFuQxHfTPjY7npwHscrjdvt5ax5b+p+Xx9NYJyzKn7fGtqKBY+kxiqt8eDzndeKi58fq4zimynoprb6/g3Ps/DgZlW2ltHxfOUfs8XstpdW313zeEueYL0sp+bbsZ6fhZA3+d9PfeUbOlBSFpb+8HkmTM8Q/NFW/l9PxlV/H/vsxKseS8Fj4MqjPtkgeS8eT0p7tL48dyy7vt7SJ1r6Mcqz58yNLKe/vIF/n1usopQbeVvm97qMQy1IXA5PeCJMhVGylsR6Q7JSl9vEU1slSOjoVSUgwq9xxhi+56qpvx4ZbX8Enf9wGm1l5NnlCBosNoMxu6G4WWnCOojZ4VNgICWLmdu17hMwdvTjywsfY9KPX0VHj+UV8QkYCFTZCglh0Vjxf0la18ww++M7LqBS+EuLvqLAREsSyl4x1u7i1nW/Cxu//G0f+uh2WLuVpngjxB1TYCAlirIPIqr/chLSZuTwzsMN/3o71QuutrbKZZwjxL1TYCAlyESnRWPbr6zHxi7NgjAzlWXU2qw0Nx6qw4Xsv4/yOEupYQvwOFTZCiFjQZv1oBS578jqEmNybromdmtxy1+s49IctPEOIf6DCRggRsXvVMuYVYM0rNyNzfgHParP2WvDpizuF1tu/0HzW+xHcCfElKmyEEJmYnAQs+80XMO27i6Ez9L8ZVlnV7rNY+5W/ovLjYp4hZOSM6MgjZzZfwIcPHVccUosJCTdAH9L/GKNZID0XT9DzHha+/nbC59Lc2evRuJEhplBMuGEWpty8CMbIMJ5VemD9cyqx8IVGHnEmxLKU8v4O8nX+OvKIgyPWfN4ShXWy1AgPqcUK2wdCYev3ChFCRrmxn52OufdfrTIUF+Pm7wrhCxU2Z0IsSynv7yBfF0yFjU5FEkJ87vy20+hp7uQRIcOLChshxOe6GtrR09rFI0KGFxU2QojP6Y0GGEJDeETI8KLCRgjxucRJGQiPi+ARIcNrxAtb/8uAhJDRLSojFnPuXoWQiIFHMSFkKIxor8j64nYcfu083JuCp/+xNLhsOtDjGoin2zsRd3Xsr/46esLbffv3YmI8PZb339uV96+B43mo7O+SVvs+3n9/9/d1ZzsvH4e4m9a+Ax/XtZecXFtFE+qPV8NudW+OLJ1Bj8z5hZj34DUwJUayjGOF4vfpn1OJhS/UK9KZEMtSyvs7yNcFU6/IES1schqxuKi9/aB++GkGbc7pvRZX+fB4zuvERc+P1cdxTJX1Ulp9fwfn2M0PqZSW7yvniD1+r6W0+vaaz1viHPNlKSXfVvUzI3yjs+uPYf9vNomTjbrDEBaCGT9cgTGfmeY0JFff8ft/H0ble0t4LHwZ1GdbJI+l40lpz/aXx45ll/db2kRrX0Y51vz5kaWU93eQr3PrdZRSA2978TEyA28vTylvr/m8JQrrZCnq7k8IcdLT3IVP/rQNOx9d615RE36hxBYkYcmTn8PEG2a5Pc4kIUOJChshRNTT1IFNt7+Gw3/dAWuPhWe1pc3Mw8o/fBnZi8cJRa7/X9KEjAwqbIQEObvdjtINJ/DOjS/gwtFKluBr1IWEGzH1u5dh5fM3ISI5mmcJ8Q9U2AgJcp++uBvb7n/H7etpbHLSNa/cgktvXgidnn6FEP9DP5WEBLHaQxU4+PstsFsHbqWxXo+5KyZi1V++ipjcBDr1SPwWFTZCgljNvlK+pI0VtUtuWYjLnrhOnNaGEH9GhY2QIGbpHriTSGx+Epb/5guY+q1F1EojowIVNkKCWPyYZL7kirXSUmfkYPVfvyreeE1FjYwWVNgICWLZS8YidXo2jy7Shxow/dbLsOK3NyAszsSzhIwONPIIo/K43X7emseW/ufl8TTWCYvy562xrWjgWHqM4iofHs95nbjo+bH6OI6psl5Kq+/v4BwH98gjdosVe57agKrd52Cz2hCREo1Zd16O5KJMcf1F8v2Vjq/8Ovbfj1E5loTHwpdBfbZF8lg6npT2bH957Fh2eb+lTbT2ZZRjzZ8fWUp5fwf5OrdeRyk18LbK73UfhViWUt5e83lLFNbJUjSklgMVNs7pvRZX+fB4zuvERc+P1cdxTJX1Ulp9fwfn2M0PqZSW7yvniD1+r6W0+vaaz1viHPNlKSXf1vlnx26zo6elGzazVWihRcAgtNi0j83wWEqrvY7992NUjiXhsfBlUJ9tkTyWjielPdtfHjuWXd5vaROtfRnlWPPnR5ZS3t9Bvs6t11FKDbyt8nvdRyGWpZS313zeEoV1shQNqUUIEej0OoTHR4itNUdRI2T0osJGCCEkoFBhI4QQElCosBFCCAkoVNgIIYQEEOD/AeeaUwLRptaRAAAAAElFTkSuQmCC;" vertex="1" parent="1">
          <mxGeometry x="151.75" y="760" width="126.5" height="80" as="geometry" />
        </mxCell>
        <mxCell id="-eTZZblMJ3lCmIqNIsWR-35" value="Evaluation Metrics" style="text;html=1;align=center;verticalAlign=middle;whiteSpace=wrap;rounded=0;fontStyle=1" vertex="1" parent="1">
          <mxGeometry x="172.5" y="710" width="85" height="40" as="geometry" />
        </mxCell>
      </root>
    </mxGraphModel>
  </diagram>
</mxfile>
